<?xml version="1.0" encoding="UTF-8"?>
<svg width="34px" height="34px" viewBox="0 0 34 34" version="1.1" xmlns="http://www.w3.org/2000/svg" xmlns:xlink="http://www.w3.org/1999/xlink">
    <!-- Generator: Sketch 46.2 (44496) - http://www.bohemiancoding.com/sketch -->
    <title>users/avatar-top</title>
    <desc>Created with Sketch.</desc>
    <defs></defs>
    <g id="Page-1" stroke="none" stroke-width="1" fill="none" fill-rule="evenodd">
        <g id="edit_male_profile_form-copy" transform="translate(-1013.000000, -75.000000)">
            <g id="header/header-female-avt" transform="translate(0.000000, 1.000000)">
                <g id="header/avater-male-buy-premium1" transform="translate(909.000000, 74.000000)">
                    <g id="header/avater-money">
                        <g id="Group-2" transform="translate(97.000000, 0.000000)">
                            <g id="users/avatar-top" transform="translate(7.000000, 0.000000)">
                                <circle id="Oval-7" fill="#E7F7FF" cx="17" cy="17" r="17"></circle>
                                <path d="M21.2098147,21.5051702 C24.5906576,22.8003144 26.9910714,26.0760901 26.9910714,29.9125126 L26.9910714,29.9125126 C26.9910714,30.2072164 26.9769068,30.4986119 26.9492212,30.7860554 C24.1521455,32.8081995 20.7152527,34 17,34 C13.276249,34 9.83213284,32.8027409 7.03159464,30.772166 C7.00478352,30.4892262 6.99107143,30.2024707 6.99107143,29.9125126 L6.99107143,29.9125126 L6.99107143,29.9125126 C6.99107143,26.1243448 9.33148005,22.8828087 12.6452231,21.5549786 C13.6537839,22.8272152 15.1887729,23.6395206 16.9080018,23.6395206 C18.6495622,23.6395206 20.2020654,22.8059756 21.2098147,21.5051702 Z" id="Combined-Shape" fill="#FFFFFF"></path>
                                <g id="Group-2" transform="translate(10.000000, 6.000000)" fill="#FFFFFF">
                                    <g id="Group" transform="translate(0.991071, 0.912513)">
                                        <circle id="Oval" cx="6" cy="6" r="6"></circle>
                                    </g>
                                </g>
                            </g>
                        </g>
                    </g>
                </g>
            </g>
        </g>
    </g>
</svg>